<svg width="100" height="100" viewBox="0 0 100 100" fill="none" xmlns="http://www.w3.org/2000/svg">
<g id="Group 8">
<path id="Ellipse 7" d="M50 97.5C76.2335 97.5 97.5 76.2335 97.5 50C97.5 23.7665 76.2335 2.5 50 2.5C23.7665 2.5 2.5 23.7665 2.5 50C2.5 76.2335 23.7665 97.5 50 97.5Z" fill="white" stroke="#00509D" stroke-width="5"/>
<path id="Rectangle 26" d="M20 21C20 20.4477 20.4477 20 21 20H27C28.6569 20 30 21.3431 30 23V69.375C30 69.7202 29.7202 70 29.375 70V70C24.1973 70 20 65.8027 20 60.625V21Z" fill="#00509D"/>
<path id="Rectangle 28" d="M66 23C66 21.3431 64.6569 20 63 20H39C37.3431 20 36 21.3431 36 23V65C36 73.2843 42.7157 80 51 80V80C59.2843 80 66 73.2843 66 65V23Z" fill="#00509D"/>
<path id="Rectangle 27" d="M71 23C71 21.3431 72.3431 20 74 20H80C80.5523 20 81 20.4477 81 21V60.625C81 65.8027 76.8027 70 71.625 70V70C71.2798 70 71 69.7202 71 69.375V23Z" fill="#00509D"/>
</g>
</svg>
